<?xml version="1.0" encoding="UTF-8"?><svg xmlns="http://www.w3.org/2000/svg" xmlns:xlink="http://www.w3.org/1999/xlink" id="ProtestantCemetery" viewBox="19.904121 0.0 3194.056566 1145.158275" preserveAspectRatio="xMidYMid meet" zoomAndPan="magnify" version="1.0" contentScriptType="text/ecmascript" contentStyleType="text/css"><style type="text/css" xml:space="preserve">
 
 text { font-size: 50%; font-family: Courier; font-weight: normal; }

 g    { stroke:black; fill:none; stroke-width: 1px; }

 rect.invisible {
    stroke: blue; 
    fill: none; }

 .outline { stroke: red; }
 
</style><g id="S0"><rect class="invisible" x="19.904121" y="43.0" width="3194.056566" height="1102.158275"/><polygon class="outline" points="884.0,702.158275 1061.97607,706.8932199999999 1060.99991,751.601348 1267.164903,757.0678439999999 1267.164903,754.72506 1282.197767,755.115524 1282.002535,762.5343399999999 1266.969671,762.339108 1266.969671,760.386788 884.0,752.158275 "/><polygon class="outline" points="1318.646885,761.265332 1318.406331,763.430316 1303.732554,763.189762 1303.973108,755.973151 1319.127992,756.213704 1319.127992,758.138134 1627.036749,765.835853 "/><polygon class="outline" points="1761.094894,631.317518 1856.775934,633.770878 1855.843525,670.134831 1760.162485,667.681471 "/><polygon class="outline" points="1953.080335,156.05269399999997 1960.839587,155.22724199999993 1963.150854,176.35882400000003 1952.915244,177.514457 1952.419973,170.58065699999997 1954.235968,170.415566 1953.080335,156.05269399999997 "/><polygon class="outline" points="415.4003,331.62061500000004 240.259644,110.23942699999998 19.904121,284.59778900000003 194.019113,506.76127299999996 "/><polygon class="outline" points="879.116872,276.700649 876.377331,460.838617 830.255539,462.53078400000004 830.07213,463.509188 830.028389,465.985175 829.715883,469.996838 829.492257,474.961508 829.08522,480.904582 828.728973,487.39223300000003 828.423514,494.42445899999996 827.981912,501.469382 827.7999,508.352767 827.45635,514.976561 827.3343,521.030385 827.395657,526.105807 827.491583,530.07938 827.732827,532.666116 828.847375,532.836828 829.157755,533.219866 830.557286,533.501327 832.773681,533.706607 835.670799,533.848401 839.261332,534.062854 843.111457,534.11577 847.370013,534.130594 851.628571,534.145417 856.023272,534.147544 860.269131,534.026223 864.255401,534.066441 867.820541,534.008606 870.828407,533.865415 873.155552,533.785709 875.210411,533.731397 876.32404,623.714844 881.697142,623.90038 881.776432,504.005456 873.765804,503.51658899999995 873.164122,489.70255399999996 880.430545,489.57418600000005 884.290347,276.218161 "/><polygon class="outline" points="748.763584,261.666654 783.104328,261.75984800000003 788.653793,257.946419 797.408629,259.05252099999996 805.679578,249.08016599999996 847.611949,245.16947500000003 859.20746,248.75721599999997 867.111594,240.741666 878.676061,246.94153800000004 "/><polygon class="outline" points="837.153394,309.72782099999995 840.153609,263.855049 "/><polygon class="outline" points="875.426009,642.063249 881.03331,641.814958 882.370691,673.825031 876.316867,673.702981 "/><polygon class="outline" points="877.016939,246.82161399999995 875.493293,230.484328 881.75592,229.900264 883.551854,246.21215600000005 877.016939,246.82161399999995 "/><polygon class="outline" points="845.038576,261.75153 844.302147,253.85517500000003 834.091341,254.807454 834.82777,262.703809 "/><polygon class="outline" points="3199.825513,459.651751 3205.934979,459.77961300000004 3202.99937,679.78045 3199.526152,679.666909 3203.18393,466.151572 3199.994056,466.163375 "/><polygon class="outline" points="2144.467791,778.344646 2169.0,778.808275 2194.6,779.058275 2253.55,781.058275 2304.903295,782.465722 2318.258167,772.440338 2333.367695,772.440338 2350.914242,774.911383 2360.954767,782.465722 2415.349065,785.007368 2426.266917,776.605814 2438.744462,776.605814 2454.633835,777.45303 2463.894513,780.771291 2473.935038,785.7839819999999 2527.452008,787.478413 2538.36986,781.618506 2559.230756,777.45303 2570.148608,780.771291 2584.380808,788.3256289999999 2640.432279,790.8672750000001 2653.787152,783.3129369999999 2673.088354,780.771291 2694.35,792.608275 2749.318356,793.903131 2757.701706,788.3256289999999 2764.720326,785.501577 2775.248254,785.501577 2784.996336,786.913603 2792.697321,787.619616 2806.052193,796.727183 2855.767412,796.727183 2869.122284,790.443668 2883.159522,788.3256289999999 2896.416914,791.079079 2911.1,800.058275 3025.091562,803.935971 3025.247088,800.131425 3031.062711,800.303739 3031.996881,775.131087 3026.181258,774.9587730000001 3026.237893,766.691593 3028.248971,766.70838 3030.871882,701.585375 3028.744112,701.462411 3029.023615,693.184714 3038.856136,693.279169 3038.758449,698.309493 3068.181385,699.378156 3068.279071,694.347833 3070.290149,694.3646200000001 3070.890016,669.207743 3103.6665,670.34153 3103.289502,695.487892 3105.077711,695.5151960000001 3104.985283,700.656954 3134.063398,701.518523 3134.14531,696.153896 3141.637708,696.358772 3141.744898,693.896698 3199.444874,695.418 3199.416208,691.574165 3203.62475,691.597026 3201.822534,808.27307 3204.705355,808.358487 3204.524096,813.9031749999999 3201.530799,813.822971 3201.434956,816.484839 3195.779792,816.3087929999999 3195.917338,814.530739 3134.026317,812.247166 3134.004461,814.130483 3129.3488,814.0179969999999 3129.370656,812.13468 3104.41956,811.319015 3104.25394,817.1951329999999 3101.411819,820.318755 3096.203774,820.232334 3093.154138,816.611662 3093.219707,810.96171 3073.481869,810.342943 3073.27555,813.0100239999999 3069.729869,812.9558850000001 3069.667314,811.6301639999999 3066.674016,811.5499609999999 3066.585396,809.671857 3044.190903,809.067724 3044.253459,810.3934449999999 3041.265374,810.423718 3041.317504,811.528485 3036.219936,811.4368509999999 3036.315778,808.774984 2849.849251,802.070511 2721.755008,797.7145310000001 2612.88851,793.9370180000001 2499.606952,791.0535649999999 2389.637775,788.128102 2277.382528,785.1962209999999 2173.4,781.908275 2067.009495,780.50963 1897.659679,776.420216 1804.805945,774.255233 1722.055466,772.09025 1644.356616,770.406374 1567.138873,768.0008359999999 1488.718362,766.076407 1411.981727,763.430316 1335.966752,761.986993 1318.646885,761.265332 "/><polygon class="outline" points="2144.467791,778.344646 2083.848254,777.141878 "/><polygon class="outline" points="700.496055,213.84612500000003 700.78104,213.95687499999997 703.295118,214.40904899999998 707.902146,215.21534199999996 714.180993,216.27770299999997 721.723228,217.63422300000002 730.231168,219.038009 739.581366,220.63789899999995 749.203854,222.212397 758.975181,223.91034000000002 768.325381,225.51022999999998 777.25445,227.01207 785.205117,228.33049800000003 791.905093,229.49091199999998 797.205538,230.369864 801.799869,231.04001600000004 886.0,224.158275 998.916134,220.765537 997.939974,202.99942499999997 1143.583047,197.92339300000003 1145.925831,155.7532799999999 1224.799559,160.24361599999997 1225.775719,209.83254499999998 1306.211304,207.09929699999998 1519.599881,205.927905 1519.795113,144.8202879999999 1601.011626,144.6250560000001 1600.816394,182.50006499999995 1871.212715,180.93820800000003 1908.111564,176.44787199999996 1903.81646,141.69657600000005 1977.223692,131.934976 1982.0,166.158275 2151.95,143.3082750000001 2277.71981,127.49506599999995 2274.145093,94.65478000000007 2355.040154,85.661744 2358.900473,118.72047999999995 2650.368015,86.13237600000002 2646.694004,52.91665400000011 2738.920533,43 2742.786941,81.13550800000007 3213.960687,45.54704199999992 3207.794615,426.115811 3200.566762,425.99975300000006 3200.751689,420.23141 3203.952976,420.263199 3209.882701,77.05763200000001 3003.486235,94.71499900000003 2795.44998,110.34016599999995 2676.593247,118.68208000000004 2653.782946,120.44179099999997 2653.034346,111.57474700000012 2659.439035,111.0365690000001 2659.740599,113.67696099999989 2737.890569,107.8973820000001 2737.418922,104.49665000000005 2743.621383,104.04838999999993 2744.093031,107.44912199999999 2771.379466,105.38363099999992 2771.070388,102.13081800000009 2777.117605,101.68988399999989 2777.574602,104.78012600000011 2804.557873,102.88453099999992 2804.263446,99.94220799999994 2810.310662,99.50127300000008 2810.61974,102.75408599999992 2836.826788,100.89511700000003 2836.362465,97.64963000000012 2841.943948,97.23067100000003 2842.253026,100.48348400000009 2868.763237,98.45461999999998 2868.45416,95.20180699999992 2874.190887,94.77552300000002 2874.655209,98.02100999999993 2902.259459,96.09611300000006 2902.098301,92.68073099999992 2908.152843,92.39504099999999 2908.469246,95.80309800000009 2936.531904,93.70098000000007 2936.215501,90.29292299999997 2941.486494,89.88861500000007 2941.950817,93.13410199999998 2968.778843,91.24583200000006 2968.455115,87.68253000000004 2974.657576,87.23426999999992 2974.981305,90.79757199999995 3000.560048,88.81266000000005 3000.059099,84.79095000000007 3006.572049,84.32803899999999 3007.058348,88.03926000000001 3113.66157,78.65254499999992 3113.367143,75.71022199999993 3119.259115,75.276613 3119.708787,78.21161000000006 3144.503981,76.10808100000008 3144.194904,72.85526800000002 3150.707854,72.39235699999995 3151.002281,75.33468100000005 3177.660412,73.14324699999997 3177.351335,69.89043399999991 3183.553796,69.44217400000002 3183.855548,72.53974199999993 3210.04062,70.21503899999993 3210.374229,50.906097000000045 3182.622061,52.993564000000106 3182.805195,56.87468100000001 3176.284919,57.182346999999936 3175.96119,53.619044999999915 3149.30306,55.81047899999999 3149.486194,59.69159599999989 3143.276407,59.98461199999997 3142.797434,56.428634999999986 3118.002239,58.532163999999966 3118.192699,62.56852600000002 3112.138157,62.85421599999995 3111.799778,58.980424000000085 3005.329825,67.89408000000003 3005.512959,71.77519699999993 2999.147928,72.07553800000005 2998.831525,68.66748000000007 2973.400701,70.489822 2973.598486,74.6814280000001 2967.233454,74.98176899999999 2966.747156,71.27054799999996 2940.392189,73.29208599999993 2940.737894,77.32112200000006 2935.4669,77.72542999999996 2934.973276,73.85896400000001 2906.895967,75.65059300000007 2907.227021,79.3691389999999 2901.335049,79.80274800000007 2900.856076,76.24677199999996 2873.089256,78.02375000000006 2873.427636,81.89754100000005 2867.225174,82.34580099999994 2866.901446,78.78249899999992 2840.679747,80.33097799999996 2841.010801,84.0495249999999 2835.421993,84.31323900000007 2835.26816,81.05310099999997 2808.898542,82.76414999999997 2809.222271,86.327452 2803.175054,86.76838700000008 2802.851326,83.20508500000005 2776.015974,84.93811000000005 2776.191783,88.66398200000003 2770.137241,88.94967199999996 2769.813513,85.38636999999994 2742.830242,87.28196600000001 2742.850806,91.01516300000003 2736.648345,91.46342299999992 2732.577645,51.35760899999991 2654.073708,59.418429999999944 2657.806029,95.65045299999997 2651.448323,96.1060379999999 2651.020627,93.63677400000006 2350.050305,127.67614400000002 2346.967501,94.65753199999995 2332.930467,96.08227699999998 2336.694329,128.60892400000012 2301.942309,132.77693799999997 2299.373153,109.84690100000012 2308.107007,108.98863200000005 2309.535122,123.4955930000001 2327.723762,121.29888200000005 2325.09159,97.03335799999991 2306.874942,98.63651899999991 2306.937959,99.97200599999996 2298.352492,100.82327400000008 2298.317483,100.08133700000008 2284.707849,101.61582900000008 2287.732123,134.1910499999999 2151.2,150.95827499999996 1976.0,175.158275 1971.1715,141.11087999999995 1959.067116,142.47750399999995 1959.262348,144.6250560000001 1952.038764,145.405984 1951.843532,143.64889599999992 1912.016204,148.7249280000001 1914.944684,175.47171200000003 1942.277164,171.957536 1943.058092,178.790656 1870.627019,187.96656099999996 1607.844746,189.528417 1607.454282,212.76102500000002 1581.488425,212.95625700000005 1581.488425,200.85187299999996 1556.498729,201.047105 1556.498729,213.15148899999997 1537.951689,213.15148899999997 1537.561225,180.35251200000005 1536.585065,180.35251200000005 1536.389833,172.73846400000002 1589.297705,172.34799999999996 1589.297705,152.62956800000006 1526.823465,153.21526399999993 1526.433001,172.543232 1528.775785,172.543232 1528.775785,180.93820800000003 1526.042537,180.93820800000003 1526.042537,213.346721 1306.797,214.51811299999997 1216.014119,217.64182500000004 1215.818887,193.82352100000003 1196.490919,193.23782500000004 1196.686151,186.01424099999997 1216.209351,186.59993699999995 1216.990279,167.857664 1152.173255,164.34348799999998 1151.001863,184.06192099999998 1186.534087,185.23331299999995 1186.338855,193.042593 1150.416167,192.261665 1149.635239,205.146977 1004.773094,210.02777700000001 1005.35879,225.06064100000003 888.0,229.158275 801.703213,237.366128 699.59523,220.38456399999995 "/><polygon class="outline" points="86.0,588.158275 182.0,720.158275 571.787896,447.63474499999995 573.293259,440.215957 647.315473,410.79068199999995 673.674379,465.186281 699.941009,464.10988799999996 704.472584,453.799633 712.0,452.158275 728.0,298.158275 738.922328,298.976442 743.254336,261.49381400000004 733.76447,258.396339 738.854778,227.57207300000005 746.830839,229.16279099999997 742.305581,252.79329199999995 749.442907,255.69818599999996 744.222773,299.85539500000004 824.628141,310.895949 829.683819,307.67788399999995 836.345704,308.42986599999995 838.811787,320.147429 736.425868,306.07567700000004 721.702917,453.016669 727.130333,455.257064 724.887814,465.07917899999995 717.694049,464.514129 711.296674,471.01587400000005 666.514453,473.819065 641.758231,421.883234 583.923065,443.756433 582.256166,450.91562999999996 181.23091,734.8201280000001 85.0,600.158275 "/><polygon class="outline" points="20.0,413.158275 30.0,430.158275 42.0,455.158275 54.0,483.158275 68.0,526.158275 76.0,571.158275 76.0,616.158275 69.0,665.158275 51.0,713.158275 30.0,751.158275 21.0,767.158275 23.376396,775.359637 24.833762,779.206237 25.755726,781.729491 27.986216,787.975897 29.443584,791.822497 32.447197,800.468709 34.26573,805.242924 38.140521,815.8678110000001 42.265726,827.705297 44.645057,834.075151 49.454508,847.3594330000001 51.897324,854.410007 57.106034,869.030337 59.871926,876.600092 65.441803,892.1480349999999 68.38193,900.113525 74.151436,916.329493 80.095176,932.941196 83.073396,941.315118 89.029833,958.062965 92.144197,966.42419 98.087937,983.035893 101.05346,991.273671 106.835662,1007.625781 112.567077,1023.433316 115.209522,1031.1519130000001 120.592467,1046.167978 123.196821,1053.478143 128.193204,1067.294304 130.597929,1073.9364460000002 135.05891,1086.4292580000001 137.102467,1092.143785 140.989952,1102.904817 144.342037,1112.342497 145.837495,1116.597531 148.429152,1123.771552 156.0,1145.158275 164.420032,1143.566084 169.257733,1142.428271 174.49117,1141.116222 180.133038,1139.766081 186.319483,1138.365153 192.901662,1136.789988 199.879577,1135.040589 207.265923,1133.253099 215.060702,1131.427518 223.251216,1129.427702 231.714019,1127.402492 249.567239,1122.990902 258.970352,1120.740669 268.645754,1118.465041 278.580746,1116.027873 288.788028,1113.565314 299.131452,1111.090057 309.598325,1108.465959 320.350183,1105.9526110000002 331.225485,1103.29042 342.249631,1100.751677 353.397224,1098.0640939999998 364.544817,1095.376511 387.248433,1089.9632510000001 398.655617,1087.11413 410.075498,1084.401153 421.495377,1081.688174 432.779114,1078.987893 444.198995,1076.2749159999998 455.495429,1073.7107799999999 466.779165,1071.010497 477.926756,1068.3229139999999 488.950902,1065.7841720000001 499.975048,1063.24543 510.714207,1060.5959360000002 531.686044,1055.7561719999999 541.906021,1053.429756 551.989855,1051.116036 561.665256,1048.840408 571.217212,1046.7136209999999 580.360734,1044.624926 589.368114,1042.548927 597.979757,1040.647164 606.182967,1038.78349 614.126589,1037.0813560000001 621.661777,1035.417313 628.788532,1033.791362 641.854838,1031.062164 647.781692,1029.822774 653.176666,1028.7703139999999 658.027063,1027.768644 662.481726,1026.941209 666.404511,1026.3007069999999 669.646573,1025.72369 672.492902,1025.3209080000001 674.671207,1025.117755 676.304935,1024.96539 677.283337,1025.148799 677.704466,1025.246852 681.699909,1023.912932 686.550308,1022.911262 692.898291,1021.7699250000001 700.297334,1020.118579 708.734742,1017.821081 717.938227,1014.902823 727.486658,1011.265755 737.231196,1006.786427 746.738011,1001.230646 755.994412,994.462263 764.455816,986.53207 772.109532,977.3039200000001 778.657874,966.530923 783.556266,954.263863 786.902761,940.081614 789.764644,925.120592 791.469634,918.369827 793.485005,912.0020999999999 795.538465,906.0428059999999 797.864215,900.058117 800.338805,894.196875 802.936843,888.186792 805.671024,882.164012 808.515956,875.8562469999999 811.595083,869.114656 814.895712,861.803095 818.158248,854.083102 821.753036,845.508153 825.284338,836.252482 829.122495,825.8695700000001 831.666221,817.8046300000001 832.722932,814.410201 833.383908,811.19001 834.082975,808.378248 834.671295,805.8514729999999 835.272309,803.4608430000001 835.898717,801.342498 836.673967,799.347602 837.461913,797.4888510000001 838.522148,795.604703 839.854672,793.695163 841.47218,791.8963739999999 843.349279,789.936046 845.770955,787.924927 849.0,785.158275 877.0,767.158275 883.319258,762.0386060000001 883.547199,721.780182 880.760834,721.3534030000001 880.748137,721.217259 880.684651,720.536539 880.731916,719.570832 880.604945,718.209391 880.601422,716.69911 880.559807,714.780397 880.492798,712.5893940000001 880.413093,710.262248 880.333387,707.935103 880.228287,705.3356679999999 880.11049,702.60009 880.00539,700.000655 879.751449,697.277774 879.633652,694.542197 879.151165,689.3687219999999 873.778061,689.183187 875.549268,721.427459 875.748105,758.8995150000001 873.0,762.158275 847.0,782.158275 841.249283,786.561361 839.359487,788.385545 837.729281,790.0481930000001 836.371364,791.685444 835.421879,793.284605 834.485092,795.019909 833.833289,796.8659660000001 833.194182,798.848165 832.567774,800.966507 831.966759,803.3571400000001 831.242298,805.896611 830.419784,808.857212 829.363073,812.2516410000001 828.208307,816.0671970000001 826.670505,820.193134 818.769168,840.018649 815.17438,848.5935979999999 811.652251,856.4751289999999 808.351624,863.78669 805.272495,870.528282 802.304117,876.984888 799.582632,883.143812 796.984596,889.153894 794.510004,895.015136 792.184256,900.999825 790.007347,907.1079609999999 788.140819,913.599134 786.299684,920.3625959999999 784.632784,927.521793 783.165514,935.349013 774.388746,961.9852539999999 767.827707,972.622109 760.173993,981.850257 751.563745,989.657003 742.430794,996.2765440000001 733.047423,1001.683484 723.426334,1006.013971 714.15019,1009.625645 705.206297,1012.3823649999999 696.87964,1014.394879 689.616738,1016.033527 683.541043,1017.149471 678.962935,1018.1257459999999 676.018553,1018.949657 675.252477,1019.570416 673.852946,1019.288954 672.342664,1019.2924780000001 670.164358,1019.495631 667.590319,1019.873018 664.348254,1020.450036 660.69776,1021.065144 656.502688,1021.731041 651.924579,1022.707318 646.801893,1023.734382 641.270774,1024.7995369999999 635.207777,1026.051624 622.154167,1028.916966 615.014715,1030.406774 607.479527,1032.070817 599.672049,1033.760254 591.468839,1035.623928 582.99334,1037.512994 574.258248,1039.563598 565.250871,1041.6395969999999 555.971205,1043.740989 546.431946,1046.0039219999999 536.620401,1048.292246 526.67271,1050.593268 506.245452,1055.382244 495.765882,1057.8702 485.15017,1060.37085 474.411009,1063.0203430000001 463.523007,1065.546388 452.647702,1068.208579 441.623558,1070.747321 430.475965,1073.434904 419.328372,1076.122487 408.18078,1078.810073 397.033189,1081.497656 386.02174,1084.172542 363.726556,1089.54771 352.715107,1092.222596 341.839802,1094.884786 330.964497,1097.546975 320.225339,1100.196469 309.745769,1102.6844230000002 299.278896,1105.308521 288.935472,1107.783778 278.864334,1110.233642 268.929342,1112.670808 259.117796,1114.959133 249.72738,1117.34551 231.465728,1121.795191 222.730637,1123.845796 214.280532,1126.00715 206.213465,1127.858125 198.431384,1129.81985 190.908893,1131.620038 183.930977,1133.369437 177.212653,1134.957298 170.902762,1136.507067 164.988605,1137.882601 160.0,1139.158275 26.0,769.158275 53.0,726.158275 67.0,691.158275 80.0,652.158275 85.0,597.158275 80.0,546.158275 70.0,505.158275 52.0,461.158275 39.0,434.158275 30.0,418.158275 615.149283,207.24893199999997 654.247291,214.17685200000005 654.84126,208.76565700000003 614.616007,201.53088100000002 "/></g><!--
<g id="S1">
<rect class="invisible"
 x="61.963885"
 y="319.003611"
 width="9.283341" 
 height="11.855685"/>
<text  x="61.963885"
 y="319.003611">1</text>

<a xlink:href="S1.html">
<polygon points="
   71.247226,329.387261 
   64.107819,330.859296 
   61.963885,320.475646 
   69.103293,319.003611 
"/></a>
</g>
--></svg>
